# xmcd
#
# Track frame offsets:
#	150
#	15994
#	31469
#	45221
#	60675
#	73058
#	90244
#	106536
#	116085
#	129390
#	143873
#	157965
#	168080
#	181669
#	199229
#	215667
#	232274
#	248939
#	265661
#	288153
#
# Disc length: 4044 seconds
#
# Revision: 1
# Processed by: cddbd v1.4PL0 Copyright (c) Steve Scherf et al.
# Submitted via: audiograbber 1.81.01
#
DISCID=0a0fca14
DTITLE=Karat - Wunder
DYEAR=1900
DGENRE=Alternative Rock
TTITLE0=Über sieben Brücken mußt Du gehen
TTITLE1=Wunder
TTITLE2=Traumverkäufer
TTITLE3=Regen und Eis
TTITLE4=Für wen
TTITLE5=Immer so
TTITLE6=Tief in mir
TTITLE7=im nächsten Frieden
TTITLE8=Hör nicht auf
TTITLE9=Tag aller Tage
TTITLE10=Alles, was mir von Dir bleibt
TTITLE11=Sei mein
TTITLE12=Magie der Nacht
TTITLE13=Atemlos
TTITLE14=Der Garten Eden
TTITLE15=Schwerelos
TTITLE16=Sturm im Wasserglas
TTITLE17=Visionen
TTITLE18=Sei nur Du
TTITLE19=Die Schatten werden länger
EXTD=
EXTT0=
EXTT1=
EXTT2=
EXTT3=
EXTT4=
EXTT5=
EXTT6=
EXTT7=
EXTT8=
EXTT9=
EXTT10=
EXTT11=
EXTT12=
EXTT13=
EXTT14=
EXTT15=
EXTT16=
EXTT17=
EXTT18=
EXTT19=
PLAYORDER=
